<?xml version="1.0" encoding="utf-8"?>
<!-- Generator: Adobe Illustrator 14.0.0, SVG Export Plug-In . SVG Version: 6.00 Build 43363)  -->
<!DOCTYPE svg PUBLIC "-//W3C//DTD SVG 1.1//EN" "http://www.w3.org/Graphics/SVG/1.1/DTD/svg11.dtd">
<svg version="1.1" xmlns="http://www.w3.org/2000/svg" xmlns:xlink="http://www.w3.org/1999/xlink" x="0px" y="0px" width="128px"
	 height="128px" viewBox="0 0 128 128" enable-background="new 0 0 128 128" xml:space="preserve">
<g id="Layer_1">
</g>
<g id="Layer_2">
	<polygon fill="#09539E" points="68.127,73.561 37.116,73.561 6.108,73.561 6.108,62.34 6.108,51.123 37.116,51.123 68.127,51.123 
		68.127,62.34 	"/>
	<polygon fill="none" points="118.139,59.958 89.02,59.958 59.901,59.958 59.901,55.542 59.901,51.123 89.02,51.123 118.139,51.123 
		118.139,55.542 	"/>
	<text transform="matrix(0.8127 0 0 1 69.6523 59.8965)"><tspan x="0" y="0" fill="#0B549E" font-family="'Arial-BoldItalicMT'" font-size="12.2544">VISIO</tspan><tspan x="38.816" y="0" fill="#0B549E" font-family="'Arial-BoldItalicMT'" font-size="12.2544">N</tspan></text>
	<polygon fill="none" points="120.768,76.879 95.725,76.879 70.68,76.879 70.68,71.27 70.68,65.66 95.725,65.66 120.768,65.66 
		120.768,71.27 	"/>
	<text transform="matrix(0.8127 0 0 1 70.6797 68.292)"><tspan x="0" y="0" font-family="'Arial-BoldItalicMT'" font-size="3.6763">Ein Produkt der </tspan><tspan x="0" y="4.411" font-family="'Arial-BoldItalicMT'" font-size="3.6763">Weingärtner Unternehmensgruppe</tspan></text>
	<g>
		<path fill-rule="evenodd" clip-rule="evenodd" fill="#FFFFFF" d="M37.686,53.071c-0.049,0.297-0.125,0.572-0.168,0.878
			c-0.324,0-0.645,0-0.968,0c0.034-0.313,0.119-0.575,0.163-0.878C37.038,53.071,37.362,53.071,37.686,53.071z"/>
		<path fill-rule="evenodd" clip-rule="evenodd" fill="#FFFFFF" d="M38.986,53.071c-0.065,0.292-0.117,0.593-0.189,0.878
			c-0.323,0-0.647,0-0.968,0c0.07-0.283,0.117-0.593,0.186-0.878C38.341,53.071,38.666,53.071,38.986,53.071z"/>
		<path fill-rule="evenodd" clip-rule="evenodd" fill="#FFFFFF" d="M34.702,56.031c-0.334,0.054-0.767,0.01-1.14,0.023
			c-0.002-0.617-0.427-0.886-1.111-0.806c-0.829,0.099-1.339,1.042-1.302,1.992c0.057,1.5,2.002,1.358,2.25,0.212
			c-0.311-0.054-0.72-0.007-1.067-0.023c0.055-0.301,0.114-0.598,0.189-0.878c0.702,0,1.406,0,2.108,0
			c-0.203,0.873-0.38,1.77-0.567,2.655c-0.254,0-0.507,0-0.758,0c0-0.119,0-0.238,0-0.357c-0.306,0.241-0.62,0.466-1.164,0.474
			c-0.795,0.012-1.396-0.311-1.727-0.733c-0.721-0.925-0.399-2.686,0.354-3.531C31.814,53.895,34.739,53.899,34.702,56.031z"/>
		<path fill-rule="evenodd" clip-rule="evenodd" fill="#FFFFFF" d="M14.096,54.396c-0.002,1.104,0.052,2.145,0.047,3.245
			c0.502-1.062,0.963-2.163,1.422-3.268c0.363,0,0.728,0,1.088,0c0.041,1.083,0.064,2.178,0.119,3.245
			c0.479-1.064,0.91-2.17,1.375-3.245c0.378,0,0.757,0,1.137,0c-0.728,1.634-1.507,3.214-2.251,4.833c-0.371,0-0.74,0-1.113,0
			c-0.046-1.059-0.076-2.137-0.12-3.199c-0.476,1.054-0.934,2.128-1.395,3.199c-0.378,0-0.759,0-1.138,0
			c-0.104-1.596-0.204-3.193-0.332-4.761c-0.003-0.041,0.019-0.062,0.047-0.072C13.347,54.389,13.771,54.342,14.096,54.396z"/>
		<path fill-rule="evenodd" clip-rule="evenodd" fill="#FFFFFF" d="M23.381,54.374c-0.052,0.344-0.133,0.658-0.192,0.995
			c-0.852,0-1.704,0-2.556,0c-0.085,0.271-0.132,0.58-0.189,0.875c0.741,0.057,1.585,0.008,2.367,0.026
			c-0.067,0.295-0.14,0.588-0.189,0.899c-0.79,0-1.58,0-2.37,0c-0.101,0.324-0.147,0.705-0.235,1.044
			c0.821,0.054,1.746,0.004,2.605,0.02c-0.075,0.321-0.134,0.655-0.212,0.974c-1.249,0-2.498,0-3.743,0
			c0.352-1.608,0.645-3.271,1.042-4.833C20.934,54.374,22.156,54.374,23.381,54.374z"/>
		<path fill-rule="evenodd" clip-rule="evenodd" fill="#FFFFFF" d="M24.114,54.374c0.379,0,0.759,0,1.137,0
			c-0.344,1.606-0.692,3.209-1.018,4.833c-0.388,0-0.774,0-1.16,0C23.425,57.603,23.736,55.953,24.114,54.374z"/>
		<path fill-rule="evenodd" clip-rule="evenodd" fill="#FFFFFF" d="M27.193,54.374c0.415,1.069,0.821,2.146,1.23,3.222
			c0.257-1.039,0.44-2.149,0.663-3.222c0.355,0,0.712,0,1.064,0c-0.342,1.608-0.688,3.211-1.015,4.833c-0.373,0-0.744,0-1.113,0
			c-0.433-1.047-0.827-2.127-1.257-3.175c-0.243,1.036-0.433,2.126-0.663,3.175c-0.355,0-0.71,0-1.064,0
			c0.339-1.619,0.647-3.269,1.041-4.833C26.45,54.374,26.821,54.374,27.193,54.374z"/>
		<path fill-rule="evenodd" clip-rule="evenodd" fill="#FFFFFF" d="M37.166,54.374c0.37,0,0.74,0,1.111,0
			c0.284,1.593,0.554,3.203,0.805,4.833c-0.37,0-0.741,0-1.114,0c-0.077-0.326-0.105-0.7-0.166-1.044c-0.56,0-1.122,0-1.682,0
			c-0.225,0.329-0.391,0.713-0.614,1.044c-0.396,0-0.792,0-1.186,0C35.241,57.567,36.209,55.979,37.166,54.374z M36.596,57.264
			c0.362,0,0.725,0,1.09,0c-0.057-0.567-0.114-1.135-0.215-1.658C37.201,56.179,36.875,56.697,36.596,57.264z"/>
		<path fill-rule="evenodd" clip-rule="evenodd" fill="#FFFFFF" d="M43.227,56.956c0.583,0.259,0.197,1.546,0.401,2.251
			c-0.368,0-0.741,0-1.111,0c-0.246-0.502,0.184-1.246-0.096-1.658c-0.241-0.36-0.922-0.116-1.469-0.191
			c-0.158,0.59-0.269,1.23-0.401,1.85c-0.38,0-0.756,0-1.137,0c0.326-1.626,0.657-3.243,1.02-4.833
			c1.116,0.129,2.795-0.306,3.432,0.354C44.513,55.399,44.096,56.795,43.227,56.956z M42.918,56.197
			c0.147-0.194,0.189-0.554,0-0.756c-0.268-0.29-0.987-0.072-1.516-0.143c-0.145,0.354-0.178,0.816-0.282,1.208
			C41.768,56.502,42.623,56.587,42.918,56.197z"/>
		<path fill-rule="evenodd" clip-rule="evenodd" fill="#FFFFFF" d="M44.529,54.374c1.334,0,2.668,0,4.005,0
			c-0.032,0.365-0.138,0.652-0.189,0.995c-0.469,0-0.933,0-1.399,0c-0.311,1.246-0.542,2.572-0.828,3.838c-0.378,0-0.759,0-1.137,0
			c0.241-1.29,0.538-2.528,0.782-3.815c-0.435-0.054-0.972-0.008-1.445-0.023C44.34,55.083,44.423,54.655,44.529,54.374z"/>
		<path fill-rule="evenodd" clip-rule="evenodd" fill="#FFFFFF" d="M50.119,54.374c0.406,1.077,0.815,2.152,1.232,3.222
			c0.249-1.046,0.433-2.155,0.663-3.222c0.347,0,0.694,0,1.039,0c-0.316,1.632-0.663,3.235-1.015,4.833c-0.374,0-0.744,0-1.114,0
			c-0.391-1.088-0.836-2.116-1.23-3.199c-0.246,1.043-0.443,2.131-0.665,3.199c-0.353,0-0.71,0-1.065,0
			c0.332-1.626,0.643-3.276,1.044-4.833C49.377,54.374,49.748,54.374,50.119,54.374z"/>
		<path fill-rule="evenodd" clip-rule="evenodd" fill="#FFFFFF" d="M53.884,54.374c1.226,0,2.448,0,3.67,0
			c-0.041,0.354-0.126,0.663-0.188,0.995c-0.845,0-1.689,0-2.533,0c-0.123,0.243-0.138,0.591-0.215,0.875
			c0.743,0.057,1.587,0.008,2.37,0.026c-0.063,0.301-0.133,0.593-0.19,0.899c-0.79,0-1.58,0-2.369,0
			c-0.097,0.34-0.148,0.72-0.236,1.064c0.867,0,1.738,0,2.605,0c-0.07,0.329-0.126,0.666-0.215,0.974c-1.246,0-2.494,0-3.742,0
			C53.201,57.605,53.496,55.945,53.884,54.374z"/>
		<path fill-rule="evenodd" clip-rule="evenodd" fill="#FFFFFF" d="M61.082,56.933c0.053,0.14,0.218,0.202,0.285,0.378
			c0.197,0.508-0.121,1.36,0.119,1.87c-0.331,0.057-0.767,0.01-1.137,0.026c-0.207-0.549,0.215-1.302-0.094-1.684
			c-0.264-0.329-0.908-0.09-1.445-0.166c-0.168,0.583-0.279,1.222-0.403,1.85c-0.378,0-0.757,0-1.135,0
			c0.315-1.634,0.649-3.25,1.019-4.833c1.313,0.106,3.051-0.327,3.576,0.543C62.314,55.666,61.873,56.797,61.082,56.933z
			 M59.238,55.297c-0.108,0.384-0.178,0.801-0.262,1.208c0.801,0.003,1.691,0.096,1.895-0.497
			C61.059,55.04,59.968,55.348,59.238,55.297z"/>
		<path fill-rule="evenodd" clip-rule="evenodd" fill="#FFFFFF" d="M65.371,65.102c0.072,0.018-0.074,0.187-0.143,0.285
			c-0.068,0.104-0.16,0.225-0.239,0.332c-0.127,0.184-0.325,0.582-0.494,0.639c-0.213,0.07-0.668,0.011-1.043,0
			c-2.348-0.072-4.182-0.756-5.779-1.515c-1.867-0.891-4.193-1.515-6.796-1.515c-2.802,0-4.921,0.599-6.822,1.492
			c-1.948,0.914-3.911,1.657-6.654,1.657c-1.414,0-2.587-0.197-3.673-0.497c-1.074-0.298-1.994-0.746-2.96-1.186
			c-1.917-0.871-4.046-1.466-6.843-1.466c-2.556,0-4.989,0.604-6.798,1.515c-1.635,0.822-3.391,1.451-5.779,1.515
			c-0.354,0.011-0.781,0.06-1.018,0c-0.214-0.057-0.407-0.445-0.543-0.639c-0.176-0.248-0.342-0.444-0.451-0.664
			c2.854,0.355,5.087-0.29,6.986-1.229c1.896-0.939,4.131-1.581,6.799-1.708c3.284-0.155,5.962,0.511,8.169,1.517
			c0.736,0.333,1.445,0.718,2.228,0.996c1.631,0.572,3.727,0.795,5.685,0.497c0.956-0.147,1.762-0.38,2.533-0.688
			c0.746-0.296,1.44-0.674,2.228-0.996c1.547-0.629,3.222-1.075,5.209-1.253c3.111-0.28,6.047,0.316,8.338,1.207
			c0.753,0.293,1.45,0.692,2.224,0.994C61.277,64.995,63.279,65.299,65.371,65.102z"/>
		<path fill-rule="evenodd" clip-rule="evenodd" fill="#FFFFFF" d="M63.88,67.401c0.028,0.097-0.084,0.196-0.143,0.282
			c-0.068,0.099-0.139,0.199-0.213,0.309c-0.111,0.157-0.293,0.547-0.453,0.59c-0.178,0.053-0.635-0.039-0.945-0.069
			c-2.121-0.212-3.826-0.73-5.447-1.516c-1.777-0.86-3.872-1.533-6.538-1.421c-1.267,0.054-2.362,0.303-3.362,0.639
			c-0.987,0.332-1.829,0.811-2.771,1.21c-1.88,0.792-4.115,1.3-6.654,1.3c-2.562,0-4.81-0.566-6.633-1.349
			c-0.936-0.402-1.777-0.874-2.771-1.208c-0.989-0.331-2.108-0.562-3.385-0.592c-2.756-0.065-4.688,0.58-6.515,1.445
			c-1.598,0.756-3.286,1.271-5.47,1.491c-0.323,0.033-0.728,0.126-0.924,0.069c-0.189-0.051-0.332-0.417-0.45-0.59
			c-0.159-0.233-0.339-0.407-0.378-0.616c2.634-0.011,4.621-0.552,6.441-1.396c1.86-0.862,3.684-1.492,6.229-1.611
			c2.013-0.094,3.971,0.311,5.447,0.829c0.754,0.264,1.445,0.624,2.158,0.947c2.075,0.943,4.874,1.58,7.861,1.28
			c1.87-0.192,3.465-0.649,4.879-1.326c1.489-0.714,2.921-1.288,4.666-1.564c2.882-0.458,5.848,0.031,7.981,0.948
			c0.713,0.305,1.386,0.691,2.132,0.971C60.17,67.031,61.929,67.347,63.88,67.401z"/>
		<path fill-rule="evenodd" clip-rule="evenodd" fill="#FFFFFF" d="M37.614,70.976c-0.143,0-0.285,0-0.425,0
			c-0.005-0.019-0.021-0.026-0.049-0.022c-2.538,0-4.528-0.48-6.442-1.115c-1.968-0.652-3.339-1.717-5.612-1.965
			c-1.28-0.138-2.438-0.044-3.434,0.215c-0.977,0.248-1.782,0.728-2.676,1.111c-1.819,0.781-3.66,1.271-6.041,1.541
			c-0.253-0.371-0.593-0.783-0.759-1.16c2.512-0.185,4.419-0.699,6.276-1.541c0.917-0.415,1.774-0.85,2.794-1.111
			c1.031-0.264,2.202-0.41,3.554-0.309c1.225,0.091,2.232,0.342,3.196,0.71c0.927,0.353,1.771,0.841,2.701,1.206
			c1.873,0.736,4.059,1.207,6.631,1.207c2.543,0,4.776-0.435,6.656-1.16c0.936-0.357,1.775-0.844,2.699-1.206
			c0.948-0.371,1.969-0.661,3.173-0.757c1.339-0.108,2.544,0.025,3.577,0.282c1.028,0.257,1.894,0.674,2.818,1.091
			c1.862,0.837,3.776,1.377,6.301,1.538c-0.109,0.228-0.217,0.396-0.381,0.64c-0.105,0.158-0.27,0.531-0.449,0.57
			c-0.15,0.031-0.564-0.083-0.803-0.119c-1.972-0.298-3.658-0.793-5.165-1.445c-0.901-0.392-1.657-0.838-2.676-1.088
			c-1.022-0.257-2.149-0.36-3.434-0.215c-1.099,0.127-2.036,0.42-2.888,0.877c-2.528,1.358-5.361,2.102-9.12,2.203
			C37.624,70.955,37.608,70.955,37.614,70.976z"/>
	</g>
</g>
</svg>
